#!OML:ASF F:\VICON\USERDATA\INSTALL\rory3\rory3.ASF
:FULLY-SPECIFIED
:DEGREES
64
root 0.218717966823302 17.221333903510395 32.01489813144086 2.893117176656747 4.10186111722124 1.6405104760175688
lfemur -16.67198205750942 -3.799360781339286 -25.917662954260678
ltibia 38.06371719709854
lfoot -14.70719491284509 -4.725682473312431
ltoes 2.335165158465731
rfemur -14.576636224379499 1.6767267171749873 23.37603136192531
rtibia 57.960837587415234
rfoot 14.167756348967119 -4.6248815620395405
rtoes 15.280752528381704
lowerback 15.255140425416917 1.832939147836219 -1.6428926858536215
upperback -0.6189897993359974 2.0851117088133875 -0.590148830703964
thorax -9.428941512171352 1.0522528145101084 -0.14863979663829585
lowerneck -19.394965324224206 -2.6376842484112837 -3.2291321477819026
upperneck 16.42606788003836 -2.954313614590364 2.2732956414745273
head 8.47428543749966 -1.271251125262416 0.7691484249549922
lclavicle -1.7248063780556428e-15 1.7865129004749043e-15
lhumerus -54.96247488803466 -12.765828175457035 98.87745202705435
lradius 109.96158870773954
lwrist 35.2139083570268
lhand -26.93827694745323 3.005227609049798
lfingers 7.12502
lthumb -0.43001446180883574 32.22037642383106
rclavicle -1.720665474942979e-15 1.7882715160467438e-15
rhumerus -44.99484846941379 9.525096808597066 -96.3454743898595
rradius 117.32775398953909
rwrist -8.288810032800443
rhand -17.084501287857737 38.811342757961526
rfingers 7.12502
rthumb 8.663621208318448 8.739188958575514
65
root 0.21567258917748386 17.147738917578778 32.85895073934974 3.311822251698424 3.529977393531401 1.4626602423272828
lfemur -14.53174722413056 -4.300204251488872 -25.887352656889433
ltibia 39.88303937482191
lfoot -16.365732187133403 -2.816202687748044
ltoes -0.1238410255101634
rfemur -17.431953142451942 1.743767701477477 23.245042869227394
rtibia 61.04169023886571
rfoot 12.512428083678103 -4.367520469851189
rtoes 18.273287272901754
lowerback 15.40988588534736 1.7497797975481413 -1.499769447640923
upperback -0.4696698664706572 2.0233193170861674 -0.5098435182530694
thorax -9.509445559828059 1.0491206444393204 -0.05432356605516342
lowerneck -19.543314225268446 -2.4761293262895574 -3.163214557588601
upperneck 16.33540868827069 -2.7042559661397063 2.2104880357152368
head 8.399096982732162 -1.1675628380276506 0.7786995174707381
lclavicle -1.7293550449586e-15 1.783256439492369e-15
lhumerus -51.64166243045679 -14.3418409174399 98.88632742524356
lradius 109.17435007452464
lwrist 35.10398392757112
lhand -26.494439408636737 3.0052229927844216
lfingers 7.12502
lthumb -0.23355784972440152 32.67444289105255
rclavicle -1.7222177194140483e-15 1.786769426645345e-15
rhumerus -45.82512406736057 8.541790216971988 -96.15430325261795
rradius 116.77341535535952
rwrist -8.668886460301753
rhand -16.948437589412308 38.83517341154884
rfingers 7.12502
rthumb 8.94521677655029 8.891562926623024
66
root 0.22128255897611418 17.161729427592157 33.73296578308335 3.5966455315116996 2.8161996997157175 1.4507177655187813
lfemur -12.142495137394961 -4.396872966952022 -26.131218493229163
ltibia 40.82124832791126
lfoot -16.804595175812512 -1.5450406169156254
ltoes -1.7157113001940552
rfemur -20.167972610805496 1.7554288417429147 23.064382875205276
rtibia 63.02999668444083
rfoot 11.025812149409958 -4.596609247342538
rtoes 17.049758997042577
lowerback 15.491036771999223 1.6694814008625904 -1.5997993837497384
upperback -0.2985074787042299 1.925795045215421 -0.44593984381196616
thorax -9.514947462861095 1.0295860067166385 0.21138288877943345
lowerneck -19.815971035387133 -2.4204533772449968 -3.206447115475223
upperneck 16.356209483613895 -2.629343618797944 2.235255532112968
head 8.390435853905595 -1.1353885182063919 0.8060725074131954
lclavicle -1.728938576977537e-15 1.7835487800703248e-15
lhumerus -48.4090783599191 -15.576764533411795 98.73643429451002
lradius 108.93582226300319
lwrist 34.99666192426667
lhand -26.232312272040147 1.7282690084509231
lfingers 7.12502
lthumb 0.04299913496069596 31.317837862627403
rclavicle -1.7223415444012664e-15 1.7870026448373917e-15
rhumerus -46.87342541048094 8.081293860335663 -95.96232187805778
rradius 116.31076412449805
rwrist -9.081046594512912
rhand -16.879236148426592 38.922260344418
rfingers 7.12502
rthumb 9.103588867436624 9.23339819528641
67
root 0.2218684497578974 17.22554752065798 34.84580564982542 4.008133676685179 1.582668494962821 2.028223671581786
lfemur -9.231301437371357 -4.079093988326944 -27.094751173111703
ltibia 40.834227588450595
lfoot -16.13726503413231 -1.1139768203490057
ltoes -5.961087825568397
rfemur -23.134104186219243 1.901952926689984 22.432250402610684
rtibia 64.37811484751735
rfoot 9.507673653619742 -3.9661128388338773
rtoes 16.40227185590794
lowerback 15.315642590917607 1.7409906784150708 -2.434697840793432
upperback -0.40220934129835084 1.8129949188728314 -0.49920890683668917
thorax -9.625496547343348 1.0164768833642608 0.8082077212668196
lowerneck -19.98613642129049 -2.256527143365841 -3.029790196705545
upperneck 16.250834064010554 -2.3860399623949573 2.1035340138115393
head 8.313575906540445 -1.0366818358394416 0.789391044477481
lclavicle -1.728351149751561e-15 1.783965361170259e-15
lhumerus -45.36023503308161 -16.332038456153146 98.49833383312861
lradius 109.27932567400867
lwrist 35.09253938361561
lhand -25.991899332306446 2.0158502898865236
lfingers 7.12502
lthumb 0.1469577162500375 31.439984837367945
rclavicle -1.7251217962992547e-15 1.7847112495575476e-15
rhumerus -48.172762734136036 8.074383209149225 -95.91661703406534
rradius 116.0359665843387
rwrist -9.572565572707592
rhand -16.684433464860458 39.159202605345996
rfingers 7.12502
rthumb 9.568087043357282 9.370926465804757
68
root 0.22594242804718448 17.341186226587563 35.7235960003498 4.319140509135501 1.5941488496703582 2.350812758865984
lfemur -5.98836998961386 -4.837770525429101 -27.625153908463478
ltibia 40.57933025253132
lfoot -14.668570617628285 -1.6029552294635963
ltoes -10.302242912742166
rfemur -25.045711680149115 1.0580962641635467 22.100279684601237
rtibia 64.21683083251847
rfoot 7.642054016651158 -3.2298606050598098
rtoes 9.802565550092895
lowerback 15.254553691324759 1.2477607147943524 -2.6352632093466637
upperback -0.7014823446962861 1.123732634283889 -0.38394845983287373
thorax -9.84825171695588 0.705298625342881 1.376474093382382
lowerneck -20.003483931365544 -2.264691934456021 -3.0439465302744058
upperneck 16.295810374105898 -2.3849059446630734 2.1113169398160547
head 8.287777472789362 -1.0415096925565126 0.805424876095491
lclavicle -1.7311306093673346e-15 1.781949264951822e-15
lhumerus -42.56503032144434 -16.46964969553175 98.21087797519294
lradius 110.60876633477027
lwrist 35.28281297303221
lhand -25.79655924996135 1.5371846895989412
lfingers 7.12502
lthumb 0.4009681014347726 30.82770546907834
rclavicle -1.7252504337294134e-15 1.7844613587632077e-15
rhumerus -49.68800235455956 8.1841560934497 -95.84994742888787
rradius 115.9196303600789
rwrist -10.352354009163767
rhand -16.265040928671286 39.10660376221735
rfingers 7.12502
rthumb 10.204965898732413 9.413857439833029
69
root 0.21614997148355805 17.52023644611928 36.807024264823845 4.372888937117757 1.6789452575692663 1.5357208059746355
lfemur -3.1404635391742666 -5.4006764646680745 -26.760115060990024
ltibia 40.244964180554874
lfoot -11.958596478977176 -2.581785585427113
ltoes -15.891759199550368
rfemur -26.46050149553259 0.434109474836419 22.998753438987784
rtibia 62.23292401368967
rfoot 6.259786916038483 -2.733800690796182
rtoes 8.848125560141739
lowerback 15.296457180602044 0.6790569196452143 -1.7524823976892605
upperback -0.9662323104366937 0.5268626477635721 0.16756514328752203
thorax -9.98738074002056 0.416526576159363 1.7345715683016583
lowerneck -20.015713443596844 -2.1467099020756075 -2.973829393035049
upperneck 16.495861491609098 -2.2310100613057844 2.003767314220374
head 8.320259367535998 -0.9913166368236062 0.7713145025384296
lclavicle -1.7302174717374015e-15 1.782602786498252e-15
lhumerus -40.05852359680601 -16.27881675438778 97.78984244908843
lradius 112.44997583817437
lwrist 35.872224991444284
lhand -25.437122976443217 1.386718080457918
lfingers 7.12502
lthumb 0.609065597616825 30.667139846255317
rclavicle -1.7250959905548436e-15 1.784891523944145e-15
rhumerus -51.18044247037565 8.39307443595433 -95.82875400641676
rradius 115.67129301133515
rwrist -10.953568915545628
rhand -15.879820496781052 39.092192002104184
rfingers 7.12502
rthumb 10.840191181697266 9.511544269460476
70
root 0.193517104193876 17.72785656753372 37.956958210094996 5.022064080503013 1.0646545747923073 1.005879599010301
lfemur -0.6055013213203342 -5.046312672342187 -26.188908806252197
ltibia 39.601628207654606
lfoot -8.088075306297128 -4.2777372564271285
ltoes -21.27146315836312
rfemur -28.226033622862495 0.48761060871652295 23.75824175135885
rtibia 59.156691025430376
rfoot 5.608633393648508 -2.2032610648084807
rtoes 6.057576542919575
lowerback 14.674945378481022 0.4169361714552912 -1.5018245620734667
upperback -1.4843108703443395 0.22047263752718038 0.7036112392909701
thorax -9.97140574594648 0.2713906494387171 2.4291292231665307
lowerneck -20.07975566382707 -2.038313106283879 -2.889608271972319
upperneck 16.769287188984396 -2.1033865332081736 1.8325325067667184
head 8.353938259455388 -0.9680828163067852 0.7062868954216284
lclavicle -1.7286336350993901e-15 1.783756375432801e-15
lhumerus -38.46873257126917 -15.870545872629314 97.38521891744494
lradius 114.60387106936842
lwrist 36.25374224936416
lhand -25.137334815450885 1.4599993460056262
lfingers 7.12502
lthumb 0.9796737585793212 30.923199108578604
rclavicle -1.7248315847228958e-15 1.784927622542458e-15
rhumerus -52.613555162178194 8.846723159061407 -95.83772182743739
rradius 115.45041139381694
rwrist -11.232246163101907
rhand -15.674598257308817 39.11417041330388
rfingers 7.12502
rthumb 11.241388357150393 9.718751485112227
